<svg width="47" height="56" viewBox="0 0 47 56" fill="none" xmlns="http://www.w3.org/2000/svg">
<path d="M46.9999 23.5278C47.0082 26.6184 46.4043 29.6804 45.2231 32.5361C44.0414 35.3914 42.3062 37.9842 40.1172 40.1637L24.863 55.4363C24.5012 55.7972 24.0114 56 23.5008 56C22.9902 56 22.5004 55.7972 22.1386 55.4363L6.88439 40.1637C3.2262 36.5019 0.877097 31.7336 0.201229 26.599C-0.474194 21.4644 0.561286 16.2495 3.14757 11.7645C5.73389 7.2788 9.72613 3.77299 14.505 1.79121C19.2846 -0.191023 24.5835 -0.538925 29.5804 0.801826C34.5773 2.14262 38.9926 5.0964 42.1416 9.20551C45.2906 13.3146 46.9971 18.3492 46.9967 23.5285L46.9999 23.5278ZM29.2592 17.7626C27.7318 16.2333 25.6604 15.3743 23.5006 15.3738C21.3407 15.3738 19.2692 16.2329 17.7419 17.7618C16.2145 19.291 15.3565 21.3649 15.3565 23.5273C15.3565 25.6898 16.2146 27.7641 17.7419 29.2929C19.2693 30.8222 21.3407 31.6812 23.5006 31.6809C25.6604 31.6809 27.7319 30.8213 29.2592 29.2921C30.7836 27.762 31.64 25.689 31.64 23.5273C31.64 21.3661 30.7837 19.2927 29.2592 17.7626Z" fill="#3D3D3D"/>
</svg>
