<?xml version="1.0" encoding="utf-8"?><svg xmlns="http://www.w3.org/2000/svg" xmlns:xlink="http://www.w3.org/1999/xlink"><symbol viewBox="0 0 22 24" id="basket" xmlns="http://www.w3.org/2000/svg"><g clip-path="url(#aa)"><path d="M10.363 18.443a2.046 2.046 0 00-2.045 2.042 2.046 2.046 0 004.09 0 2.046 2.046 0 00-2.045-2.042zm6.134 0a2.046 2.046 0 00-2.045 2.042 2.046 2.046 0 004.089 0 2.046 2.046 0 00-2.044-2.042zm3.978-8.199L7.413 6.891a.614.614 0 00-.75.73L8.67 16.4h-.786L5.482 5.895a.613.613 0 00-.474-.464l-4.27-.882A.614.614 0 00.489 5.75l3.885.802L6.797 17.15a.613.613 0 00.598.477h12.07a.615.615 0 00.607-.53l.858-6.175a.613.613 0 00-.455-.678zm-8.14 3.91a.613.613 0 01-1.227 0v-2.696a.613.613 0 011.227 0v2.696zm2.625 0a.613.613 0 01-1.227 0v-1.88a.613.613 0 011.227 0v1.88zm2.625 0a.613.613 0 01-1.227 0v-1.226a.613.613 0 011.227 0v1.226z"/></g><path fill-rule="evenodd" clip-rule="evenodd" d="M16.268 4.568a2.996 2.996 0 00-1.693-.523c-.627 0-1.21.193-1.693.523-.28-.843-.492-1.752-.492-2.383C12.39.98 13.37 0 14.575 0s2.185.98 2.185 2.185c0 .631-.212 1.54-.492 2.383zm-4.722 2.274l.024.006v-.011l-.024.005zm4.972 1.217c-1.333-.33-2.766-.681-4.129-1.013a2.185 2.185 0 114.129 1.013zm4.436 1.103c-.866-.217-2.155-.538-3.618-.9a2.995 2.995 0 00.243-1.425c.87.18 1.762.45 2.308.765.596.344.969.928 1.067 1.56zM9.869 6.439c-.36-.086-.706-.167-1.03-.243a2.19 2.19 0 01-.376-2.667 2.188 2.188 0 013.147-.7c.098.738.338 1.599.61 2.353a3.01 3.01 0 00-.449.774c-.628.113-1.305.278-1.902.483zm10.124.075a3.43 3.43 0 01-.217.114c-.696-.295-1.587-.526-2.397-.672a3.01 3.01 0 00-.449-.774c.262-.727.494-1.553.599-2.273.095-.067.189-.128.278-.18a2.188 2.188 0 012.986.8 2.188 2.188 0 01-.8 2.985z"/><defs><clipPath id="aa"><path transform="translate(0 3.064)" d="M0 0h20.936v20.936H0z"/></clipPath></defs></symbol><symbol viewBox="0 0 344.96 344.96" id="check" xmlns="http://www.w3.org/2000/svg"><g data-name="Слой 2"><path class="bcls-1" d="M321.85 86.24l-40-23.11-23.1-40H212.5L172.48 0l-40 23.11H86.24l-23.11 40-40 23.1v46.21L0 172.48l23.11 40v46.21l40 23.11 23.11 40h46.21l40 23.1 40-23.11h46.21l23.11-40 40-23.11V212.5l23.11-40-23.11-40V86.24zM156.91 243.07a16.79 16.79 0 01-23.34 0l-50.45-50.44a16.19 16.19 0 010-22.89l13.35-13.35a16.19 16.19 0 0122.89 0l25.87 25.87 80.34-80.35a16.19 16.19 0 0122.89 0l13.35 13.35a16.19 16.19 0 010 22.89z" data-name="Capa 1"/></g></symbol><symbol viewBox="0 0 17 16" id="chevron-down" xmlns="http://www.w3.org/2000/svg"><path d="M11.56 5.727L8.5 8.78 5.44 5.727l-.94.94 4 4 4-4-.94-.94z"/></symbol><symbol viewBox="0 0 16 16" id="chevron-left" xmlns="http://www.w3.org/2000/svg"><path d="M9.333 4l.94.94L7.22 8l3.053 3.06-.94.94-4-4 4-4z"/></symbol><symbol viewBox="0 0 16 16" id="chevron-right" xmlns="http://www.w3.org/2000/svg"><path d="M6.667 4l-.94.94L8.78 8l-3.053 3.06.94.94 4-4-4-4z"/></symbol><symbol viewBox="0 0 24 24" id="coalla-logo" xmlns="http://www.w3.org/2000/svg"><path fill-rule="evenodd" clip-rule="evenodd" d="M19.707 14.625l-.857-1.75c.035 0 .017 0 0 0 2.614-.07 3.47-1.453 3.47-3.063 0-1.67-1.413-3.106-3.007-3.097-3.796.035-2.767 5.617-3.033 4.41-.489-.271-.763-1.172-1.448-1.348-.754-.192-1.902-.402-2.836-.402-.934 0-2.082.21-2.836.402-.677.176-.96 1.077-1.448 1.348-.258 1.207.77-4.375-3.025-4.41C3.085 6.706 1.67 8.141 1.67 9.813c0 1.61.857 2.992 3.47 3.062-.017 0-.034 0 0 0l-.857 1.75C2.228 14.581 0 12.429 0 9.795 0 7.144 2.16 5 4.687 5c1.928 0 3.487 1.26 4.147 3.036.026.062.043.132.069.202.736-.175 1.739-.482 2.647-.578a3.58 3.58 0 01.446-.035c.994 0 2.236.402 3.093.613.026-.07.043-.132.068-.202C15.826 6.26 17.385 5 19.313 5 21.841 5 24 7.144 24 9.795c0 2.634-2.228 4.786-4.293 4.83zm-.857-1.75c-.042 0-.017 0 0 0zm-13.709 0c.026 0 .043 0 0 0zm2.845.009c.445.096.685.761.54 1.479-.146.726-.635 1.225-1.089 1.128-.445-.096-.685-.761-.53-1.479.145-.717.633-1.225 1.079-1.128zm4.01-.018c.942 0 1.713 1.374 1.713 3.072 0 1.688-.77 3.062-1.713 3.062-.926 0-1.671-1.304-1.714-2.94v-.262c.043-1.628.788-2.932 1.714-2.932zm4.018.018c.446-.097.934.411 1.08 1.128.154.718-.086 1.383-.531 1.48-.446.095-.934-.412-1.088-1.13-.155-.717.085-1.382.54-1.478z"/></symbol><symbol viewBox="0 0 24 24" id="cross" xmlns="http://www.w3.org/2000/svg"><path d="M19 6.41L17.59 5 12 10.59 6.41 5 5 6.41 10.59 12 5 17.59 6.41 19 12 13.41 17.59 19 19 17.59 13.41 12 19 6.41z"/></symbol><symbol viewBox="0 0 24 24" id="fb" xmlns="http://www.w3.org/2000/svg"><path d="M13.397 20.997v-8.196h2.765l.411-3.209h-3.176V7.548c0-.926.258-1.56 1.587-1.56h1.684v-2.86A22.108 22.108 0 0014.201 3c-2.444 0-4.122 1.492-4.122 4.231v2.355H7.332v3.21h2.753v8.201h3.312z"/></symbol><symbol viewBox="0 0 24 24" id="info" xmlns="http://www.w3.org/2000/svg"><path fill-rule="evenodd" clip-rule="evenodd" d="M12 2C6.48 2 2 6.48 2 12s4.48 10 10 10 10-4.48 10-10S17.52 2 12 2zm-1 15v-6h2v6h-2zm0-10v2h2V7h-2z"/></symbol><symbol viewBox="0 0 24 24" id="instagram" xmlns="http://www.w3.org/2000/svg"><path d="M11.999 7.377a4.624 4.624 0 100 9.248 4.624 4.624 0 000-9.248zm0 7.627a3.004 3.004 0 110-6.008 3.004 3.004 0 010 6.008zm4.807-6.719a1.078 1.078 0 100-2.156 1.078 1.078 0 000 2.156z"/><path d="M20.533 6.11A4.605 4.605 0 0017.9 3.48a6.607 6.607 0 00-2.186-.42c-.963-.042-1.268-.054-3.71-.054s-2.755 0-3.71.054a6.554 6.554 0 00-2.184.42 4.6 4.6 0 00-2.633 2.63 6.585 6.585 0 00-.419 2.186c-.043.962-.056 1.267-.056 3.71 0 2.442 0 2.753.056 3.71.015.748.156 1.486.419 2.187a4.61 4.61 0 002.634 2.632 6.583 6.583 0 002.185.45c.963.042 1.268.055 3.71.055s2.755 0 3.71-.055a6.616 6.616 0 002.186-.42 4.613 4.613 0 002.633-2.632c.263-.7.404-1.438.419-2.186.043-.962.056-1.267.056-3.71s0-2.753-.056-3.71a6.583 6.583 0 00-.421-2.217zm-1.218 9.533a5.046 5.046 0 01-.311 1.688 2.987 2.987 0 01-1.712 1.71c-.535.2-1.1.305-1.67.312-.95.044-1.218.055-3.654.055-2.438 0-2.687 0-3.655-.055a4.961 4.961 0 01-1.67-.311 2.984 2.984 0 01-1.718-1.711 5.08 5.08 0 01-.311-1.67c-.043-.95-.053-1.217-.053-3.653 0-2.437 0-2.686.053-3.655a5.038 5.038 0 01.311-1.687c.305-.79.93-1.41 1.719-1.712a5.01 5.01 0 011.669-.311c.95-.043 1.218-.055 3.655-.055s2.687 0 3.654.055a4.96 4.96 0 011.67.31 2.99 2.99 0 011.712 1.713 5.06 5.06 0 01.311 1.669c.043.95.054 1.218.054 3.655 0 2.436 0 2.698-.043 3.654h-.011v-.001z"/></symbol><symbol viewBox="0 0 25 25" id="pdf-icon" xmlns="http://www.w3.org/2000/svg"><path d="M8.636 9.901c.537 0 .94-.115 1.19-.345.269-.23.384-.595.384-1.075 0-.5-.134-.864-.384-1.095-.25-.23-.653-.365-1.21-.365H7.33v3.994h.806V9.901h.5zm-.5-2.111h.461c.27 0 .461.057.595.153.135.096.193.269.193.5 0 .23-.058.403-.154.518-.096.115-.288.173-.557.173h-.537V7.79zm5.241 2.668c.346-.365.5-.845.5-1.478 0-.615-.173-1.114-.519-1.46-.345-.345-.845-.518-1.497-.518h-1.287v3.994h1.248c.692.019 1.21-.173 1.556-.538zm-.614-.538c-.192.212-.48.308-.845.308H11.4V7.789h.46c.404 0 .711.115.922.327.192.21.307.518.307.902-.019.384-.134.691-.326.902zm4.051-2.111V7.02h-2.496v3.994h.807V9.441h1.593v-.768h-1.593v-.864h1.69z"/><path d="M17.87 2.816H6.275c-.672 0-1.21.538-1.21 1.21v14.17c0 .672.538 1.21 1.21 1.21h2.669l-.73-.73h-1.92a.475.475 0 01-.48-.48V4.026c0-.269.212-.48.48-.48H17.91c.27 0 .48.211.48.48v14.17c0 .268-.21.48-.48.48h-1.65l-.73.73h2.38c.672 0 1.21-.538 1.21-1.21V4.026a1.25 1.25 0 00-1.248-1.21z"/><path d="M16.315 17.14l-2.516-.02v-4.147h-3.456v4.09l-2.515-.039 4.3 4.301 4.187-4.185z"/></symbol><symbol viewBox="0 0 17 16" id="pencil" xmlns="http://www.w3.org/2000/svg"><path fill-rule="evenodd" clip-rule="evenodd" d="M10.029 2.862c.26-.26.682-.26.942 0l2.667 2.667c.26.26.26.682 0 .943l-7.333 7.333a.667.667 0 01-.472.195H3.167a.667.667 0 01-.667-.666v-2.667c0-.177.07-.346.195-.471l7.334-7.334zm-6.196 8.081v1.724h1.724L12.224 6 10.5 4.276l-6.667 6.667z"/></symbol><symbol viewBox="0 0 20 20" id="phone-call" xmlns="http://www.w3.org/2000/svg"><path d="M15.833 19.917h-.25c-2.667-.334-5.333-1.25-7.583-2.667A17.523 17.523 0 012.75 12C1.25 9.75.333 7.083.083 4.417c0-.667.167-1.334.583-1.834.417-.5 1-.833 1.667-.916h2.75c1.25 0 2.333.916 2.5 2.166.083.75.25 1.5.5 2.167.333.917.083 1.917-.583 2.667l-.584.583c1 1.5 2.25 2.833 3.834 3.833l.583-.583c.667-.667 1.75-.917 2.667-.583a9.15 9.15 0 002.166.5c1.25.166 2.167 1.25 2.167 2.5v2.5c0 .666-.25 1.333-.75 1.75-.5.416-1.083.75-1.75.75zM5.083 3.333h-2.5c-.25 0-.5.167-.667.334-.083.166-.166.333-.166.583C2 6.667 2.833 9 4.166 11.083 5.416 13 7 14.667 8.916 15.833 11 17.167 13.333 18 15.75 18.25c.333 0 .5-.083.666-.25a.756.756 0 00.25-.583v-2.5c0-.417-.333-.75-.75-.834-.833-.083-1.666-.333-2.5-.666-.333-.084-.666-.084-.916.166l-1.084 1.084a.886.886 0 01-1 .166A13.674 13.674 0 015.083 9.5c-.083-.333 0-.75.25-1l1.083-1.083c.167-.167.25-.584.167-.834-.333-.833-.5-1.666-.667-2.5 0-.416-.416-.75-.833-.75zM15 9.167c-.417 0-.75-.25-.834-.667-.25-1.333-1.333-2.333-2.666-2.667a.864.864 0 01-.667-1 .864.864 0 011-.666c2 .416 3.583 1.916 3.917 3.916.083.417-.167.917-.667 1 0 0 0 .084-.083.084zm3.333-.084c-.417 0-.75-.333-.833-.75-.334-3.083-2.75-5.5-5.917-5.916a.977.977 0 01-.75-.917c0-.417.5-.75.917-.75 3.916.417 6.916 3.417 7.333 7.333.083.417-.25.834-.75.917.083.083 0 .083 0 .083z"/></symbol><symbol viewBox="0 0 16 16" id="telegram" xmlns="http://www.w3.org/2000/svg"><path d="M14.629 3.698l-2.012 9.618c-.152.679-.548.848-1.11.528l-3.066-2.29-1.48 1.442c-.163.166-.3.305-.616.305l.22-3.165 5.683-5.204c.247-.223-.054-.347-.384-.123L4.839 9.29l-3.024-.959c-.658-.208-.67-.667.137-.986L13.78 2.727c.548-.208 1.027.124.849.971z"/></symbol><symbol viewBox="0 0 24 24" id="twitter" xmlns="http://www.w3.org/2000/svg"><path d="M21 6.705c-.67.289-1.383.48-2.126.574a3.624 3.624 0 001.623-2.009c-.713.419-1.5.715-2.34.88A3.725 3.725 0 0015.462 5c-2.043 0-3.688 1.633-3.688 3.634 0 .288.025.565.085.829a10.5 10.5 0 01-7.606-3.8 3.615 3.615 0 00-.505 1.836c0 1.258.658 2.374 1.64 3.02a3.688 3.688 0 01-1.668-.448v.04c0 1.766 1.28 3.232 2.956 3.57-.3.08-.627.12-.967.12-.236 0-.475-.014-.699-.062a3.718 3.718 0 003.449 2.53 7.489 7.489 0 01-4.576 1.55c-.303 0-.593-.013-.883-.05A10.507 10.507 0 008.661 19.4c6.79 0 10.503-5.538 10.503-10.34a9.1 9.1 0 00-.014-.469A7.3 7.3 0 0021 6.705z"/></symbol><symbol viewBox="0 0 16 16" id="viber" xmlns="http://www.w3.org/2000/svg"><path d="M8 1.335c-1.071.013-3.374.19-4.662 1.37-.958.948-1.292 2.35-1.331 4.084-.033 1.728-.072 4.973 3.058 5.856v1.346s-.02.538.337.648c.438.14.688-.275 1.105-.72l.778-.879c2.142.178 3.782-.232 3.97-.293.435-.139 2.883-.451 3.283-3.696.41-3.351-.2-5.463-1.301-6.418h-.007c-.332-.306-1.668-1.279-4.652-1.29 0 0-.222-.014-.578-.008zm.037.942a7.02 7.02 0 01.488.011c2.527.007 3.732.767 4.017 1.023.927.794 1.405 2.697 1.055 5.495-.332 2.713-2.317 2.885-2.685 3.002-.156.05-1.6.406-3.42.289 0 0-1.356 1.634-1.78 2.055-.067.074-.146.095-.196.085-.071-.018-.093-.107-.089-.229l.013-2.233c-2.655-.733-2.498-3.5-2.47-4.946.033-1.446.304-2.628 1.113-3.43 1.088-.982 3.043-1.115 3.953-1.122zm.2 1.446a.166.166 0 100 .332 3.136 3.136 0 012.242.883c.606.588.9 1.378.912 2.411 0 .092.074.167.167.167V7.51a.167.167 0 00.168-.165 3.588 3.588 0 00-1.009-2.646c-.66-.645-1.496-.977-2.48-.977zm-2.198.382a.523.523 0 00-.342.067H5.69a2.61 2.61 0 00-.637.523 1.003 1.003 0 00-.256.525.71.71 0 00.026.302l.01.006c.172.504.396.988.67 1.444a8.48 8.48 0 001.29 1.762l.015.022.024.017.015.018.017.015c.532.505 1.127.94 1.769 1.295.734.4 1.18.588 1.447.667v.004c.078.024.15.034.221.034.228-.016.444-.109.613-.262a2.53 2.53 0 00.517-.638v-.004c.128-.241.085-.469-.1-.623-.37-.323-.77-.61-1.195-.857-.285-.155-.574-.061-.69.095l-.25.315c-.129.156-.361.134-.361.134l-.007.004C7.093 8.527 6.63 6.772 6.63 6.772s-.022-.239.139-.36l.312-.252c.15-.122.254-.41.094-.695a7.498 7.498 0 00-.856-1.194.475.475 0 00-.28-.167zm2.486.495c-.221 0-.221.334.003.334A2.098 2.098 0 0110 5.572 1.94 1.94 0 0110.5 7a.168.168 0 00.167.165l.007.009a.169.169 0 00.167-.167c.015-.662-.191-1.218-.595-1.663C9.84 4.9 9.273 4.65 8.549 4.6h-.024zm.274.898c-.228-.006-.236.335-.01.341.55.029.816.306.851.877a.166.166 0 00.165.163h.007a.168.168 0 00.16-.178c-.039-.744-.445-1.164-1.166-1.202H8.8z"/></symbol><symbol viewBox="0 0 24 24" id="vk" xmlns="http://www.w3.org/2000/svg"><path d="M21.579 6.855c.14-.465 0-.806-.662-.806h-2.193c-.558 0-.813.295-.953.619 0 0-1.115 2.719-2.695 4.482-.51.513-.743.675-1.021.675-.139 0-.341-.162-.341-.627V6.855c0-.558-.161-.806-.626-.806H9.642c-.348 0-.558.258-.558.504 0 .528.79.65.871 2.138v3.228c0 .707-.127.836-.407.836-.743 0-2.551-2.73-3.624-5.853-.209-.607-.42-.852-.98-.852H2.752c-.627 0-.752.295-.752.619 0 .582.743 3.462 3.461 7.27 1.812 2.602 4.363 4.012 6.687 4.012 1.393 0 1.565-.313 1.565-.853v-1.966c0-.626.133-.752.574-.752.324 0 .882.164 2.183 1.417 1.486 1.486 1.732 2.153 2.567 2.153h2.192c.626 0 .939-.313.759-.931-.197-.615-.907-1.51-1.849-2.57-.512-.603-1.277-1.253-1.51-1.578-.325-.42-.231-.604 0-.976.001 0 2.672-3.761 2.95-5.04z"/></symbol><symbol viewBox="0 0 16 16" id="whatsapp" xmlns="http://www.w3.org/2000/svg"><path fill-rule="evenodd" clip-rule="evenodd" d="M12.269 3.755A5.947 5.947 0 008.035 2 5.994 5.994 0 002.05 7.985a5.98 5.98 0 00.799 2.992L2 14.077l3.173-.832c.877.477 1.86.728 2.86.728h.002a5.993 5.993 0 005.533-8.276 5.953 5.953 0 00-1.3-1.942zm-4.234 9.208h-.002c-.89 0-1.765-.24-2.532-.694l-.181-.108-1.883.494.502-1.835-.118-.188a4.965 4.965 0 01-.76-2.647 4.982 4.982 0 016.88-4.597c.604.25 1.152.618 1.613 1.081a4.946 4.946 0 011.455 3.52 4.982 4.982 0 01-4.974 4.974zm2.729-3.726c-.15-.075-.885-.436-1.022-.486-.137-.05-.236-.075-.336.074-.1.15-.387.486-.474.586-.087.1-.175.112-.324.038-.15-.075-.631-.233-1.203-.742a4.505 4.505 0 01-.832-1.036c-.087-.15-.009-.231.066-.306.068-.066.15-.174.224-.262.075-.087.1-.149.15-.249.05-.1.025-.187-.013-.262-.037-.075-.337-.811-.461-1.11-.121-.29-.244-.252-.336-.256a6.418 6.418 0 00-.286-.005.55.55 0 00-.4.186c-.137.15-.523.512-.523 1.248s.536 1.447.61 1.547c.075.1 1.055 1.61 2.555 2.258.358.154.636.246.853.315.358.114.684.098.942.06.287-.043.885-.362 1.01-.711.124-.35.124-.649.087-.711-.038-.063-.138-.101-.287-.176z"/></symbol><symbol viewBox="0 0 17 16" id="whrite" xmlns="http://www.w3.org/2000/svg"><path fill-rule="evenodd" clip-rule="evenodd" d="M10.029 2.862c.26-.26.682-.26.942 0l2.667 2.666c.26.26.26.683 0 .943l-7.333 7.334a.667.667 0 01-.472.195H3.167a.667.667 0 01-.667-.667v-2.667c0-.176.07-.346.195-.47l7.334-7.334zm-6.196 8.08v1.724h1.724L12.224 6 10.5 4.276l-6.667 6.667z"/></symbol></svg>