<svg width="24" height="24" viewBox="0 0 24 24" fill="none" xmlns="http://www.w3.org/2000/svg">
<path fill-rule="evenodd" clip-rule="evenodd" d="M19.7072 14.625L18.8504 12.875C18.8847 12.875 18.8675 12.875 18.8504 12.875C21.4638 12.805 22.3206 11.4225 22.3206 9.8125C22.3206 8.14125 20.9068 6.70625 19.3131 6.715C15.5173 6.75 16.5455 12.3325 16.2799 11.125C15.7915 10.8538 15.5173 9.9525 14.8318 9.7775C14.0778 9.585 12.9297 9.375 11.9957 9.375C11.0618 9.375 9.9136 9.585 9.15959 9.7775C8.48269 9.9525 8.19993 10.8538 7.71153 11.125C7.45448 12.3325 8.48268 6.75 4.6869 6.715C3.08461 6.70625 1.67083 8.14125 1.67083 9.8125C1.67083 11.4225 2.52767 12.805 5.14102 12.875C5.12388 12.875 5.10675 12.875 5.14102 12.875L4.28418 14.625C2.22778 14.5813 0 12.4288 0 9.795C0 7.14375 2.15923 5 4.6869 5C6.61478 5 8.17422 6.26 8.83399 8.03625C8.85969 8.0975 8.87683 8.1675 8.90254 8.2375C9.63941 8.0625 10.6419 7.75625 11.5502 7.66C11.6958 7.6425 11.8415 7.625 11.9957 7.625C12.9896 7.625 14.2321 8.0275 15.0889 8.2375C15.1146 8.1675 15.1317 8.10625 15.1574 8.03625C15.8258 6.26 17.3852 5 19.3131 5C21.8408 5 24 7.14375 24 9.795C24 12.4288 21.7722 14.5813 19.7072 14.625ZM18.8504 12.875C18.8076 12.875 18.8333 12.875 18.8504 12.875V12.875ZM5.14102 12.875C5.16673 12.875 5.18386 12.875 5.14102 12.875V12.875ZM7.98572 12.8837C8.43127 12.98 8.67119 13.645 8.52553 14.3625C8.37986 15.0887 7.89147 15.5875 7.43734 15.4913C6.99179 15.395 6.75187 14.73 6.90611 14.0125C7.05177 13.295 7.54016 12.7875 7.98572 12.8837ZM11.9957 12.8663C12.9382 12.8663 13.7094 14.24 13.7094 15.9375C13.7094 17.6263 12.9382 19 11.9957 19C11.0703 19 10.3249 17.6963 10.282 16.06V15.7975C10.3249 14.17 11.0703 12.8663 11.9957 12.8663ZM16.0143 12.8837C16.4598 12.7875 16.9482 13.295 17.0939 14.0125C17.2481 14.73 17.0082 15.395 16.5627 15.4913C16.1171 15.5875 15.6287 15.08 15.4745 14.3625C15.3202 13.645 15.5602 12.98 16.0143 12.8837Z" fill="#262635"/>
</svg>
