<svg width="25" height="25" viewBox="0 0 25 25" fill="none" xmlns="http://www.w3.org/2000/svg">
<path d="M8.63575 9.90148C9.17335 9.90148 9.57658 9.7863 9.82611 9.55595C10.0949 9.32559 10.2101 8.96078 10.2101 8.48079C10.2101 7.98162 10.0756 7.61682 9.82611 7.38632C9.57647 7.15596 9.17335 7.02148 8.61648 7.02148H7.33008V11.0151H8.13648V9.90148H8.63575ZM8.13648 7.78955H8.59731C8.86611 7.78955 9.05815 7.84714 9.19248 7.94317C9.32694 8.0392 9.38453 8.21196 9.38453 8.44233C9.38453 8.67271 9.32694 8.8456 9.23092 8.96077C9.13489 9.07595 8.94297 9.13354 8.67419 9.13354H8.13658L8.13648 7.78955Z" fill="#8A8A8A"/>
<path d="M13.3775 10.458C13.723 10.0932 13.8767 9.61315 13.8767 8.97955C13.8767 8.36509 13.7039 7.86595 13.3582 7.52039C13.0127 7.17486 12.5134 7.00195 11.8606 7.00195H10.5742V10.9956H11.8222C12.5135 11.0147 13.0319 10.8228 13.3775 10.458L13.3775 10.458ZM12.7632 9.92039C12.5711 10.1316 12.2832 10.2276 11.9183 10.2276H11.3999V7.78918H11.8607C12.264 7.78918 12.5711 7.90436 12.7823 8.11557C12.9743 8.32677 13.0895 8.634 13.0895 9.01797C13.0704 9.40193 12.9552 9.70917 12.7631 9.92037L12.7632 9.92039Z" fill="#8A8A8A"/>
<path d="M16.8144 7.80872V7.02148H14.3184V11.0151H15.1248V9.44075H16.7184V8.67268H15.1248V7.80872H16.8144Z" fill="#8A8A8A"/>
<path d="M17.8709 2.81641H6.27409C5.60202 2.81641 5.06445 3.35401 5.06445 4.02604V18.1956C5.06445 18.8677 5.60205 19.4053 6.27409 19.4053H8.94289L8.21325 18.6756H6.29325C6.02446 18.6756 5.81325 18.4644 5.81325 18.1956L5.81339 4.02604C5.81339 3.75725 6.02459 3.54604 6.29339 3.54604H17.9094C18.1782 3.54604 18.3894 3.75725 18.3894 4.02604V18.1956C18.3894 18.4644 18.1782 18.6756 17.9094 18.6756H16.2582L15.5286 19.4053H17.9094C18.5815 19.4053 19.119 18.8677 19.119 18.1956L19.1189 4.02604C19.0997 3.35411 18.5429 2.81641 17.871 2.81641H17.8709Z" fill="#8A8A8A"/>
<path d="M16.3147 17.1395L13.7994 17.1203V12.9731H10.3434V17.0627L7.82812 17.0243L12.1289 21.3251L16.3147 17.1395Z" fill="#8A8A8A"/>
</svg>
