<svg width="20" height="20" viewBox="0 0 20 20" fill="none" xmlns="http://www.w3.org/2000/svg">
<path d="M15.833 19.9167C15.7497 19.9167 15.6663 19.9167 15.583 19.9167C12.9163 19.5833 10.2497 18.6667 7.99967 17.25C5.91634 15.9167 4.08301 14.0833 2.74967 12C1.24967 9.75 0.333008 7.08333 0.0830078 4.41667C0.0830078 3.75 0.249674 3.08333 0.666341 2.58333C1.08301 2.08333 1.66634 1.75 2.33301 1.66667C2.41634 1.66667 2.49967 1.66667 2.58301 1.66667H5.08301C6.33301 1.66667 7.41634 2.58333 7.58301 3.83333C7.66634 4.58333 7.83301 5.33333 8.08301 6C8.41634 6.91667 8.16634 7.91667 7.49967 8.66667L6.91634 9.25C7.91634 10.75 9.16634 12.0833 10.7497 13.0833L11.333 12.5C11.9997 11.8333 13.083 11.5833 13.9997 11.9167C14.6663 12.1667 15.4163 12.3333 16.1663 12.4167C17.4163 12.5833 18.333 13.6667 18.333 14.9167V17.4167C18.333 18.0833 18.083 18.75 17.583 19.1667C17.083 19.5833 16.4997 19.9167 15.833 19.9167ZM5.08301 3.33333H2.58301C2.33301 3.33333 2.08301 3.5 1.91634 3.66667C1.83301 3.83333 1.74967 4 1.74967 4.25C1.99967 6.66667 2.83301 9 4.16634 11.0833C5.41634 13 6.99967 14.6667 8.91634 15.8333C10.9997 17.1667 13.333 18 15.7497 18.25C16.083 18.25 16.2497 18.1667 16.4163 18C16.583 17.8333 16.6663 17.6667 16.6663 17.4167V14.9167C16.6663 14.5 16.333 14.1667 15.9163 14.0833C15.083 14 14.2497 13.75 13.4163 13.4167C13.083 13.3333 12.7497 13.3333 12.4997 13.5833L11.4163 14.6667C11.1663 14.9167 10.7497 15 10.4163 14.8333C8.16634 13.5833 6.33301 11.75 5.08301 9.5C4.99967 9.16667 5.08301 8.75 5.33301 8.5L6.41634 7.41667C6.58301 7.25 6.66634 6.83333 6.58301 6.58333C6.24967 5.75 6.08301 4.91667 5.91634 4.08333C5.91634 3.66667 5.49967 3.33333 5.08301 3.33333ZM14.9997 9.16667C14.583 9.16667 14.2497 8.91667 14.1663 8.5C13.9163 7.16667 12.833 6.16667 11.4997 5.83333C11.083 5.75 10.7497 5.33333 10.833 4.83333C10.9163 4.41667 11.333 4.08333 11.833 4.16667C13.833 4.58333 15.4163 6.08333 15.7497 8.08333C15.833 8.5 15.583 9 15.083 9.08333C15.083 9.08333 15.083 9.16667 14.9997 9.16667ZM18.333 9.08333C17.9163 9.08333 17.583 8.75 17.4997 8.33333C17.1663 5.25 14.7497 2.83333 11.583 2.41667C11.1663 2.33333 10.833 1.91667 10.833 1.5C10.833 1.08333 11.333 0.75 11.7497 0.75C15.6663 1.16667 18.6663 4.16667 19.083 8.08333C19.1663 8.5 18.833 8.91667 18.333 9C18.4163 9.08333 18.333 9.08333 18.333 9.08333Z" fill="black"/>
</svg>
